# xmcd CD database file generated by OrangeCD 5.2
#
# Track frame offsets:
#	150
#	14632
#	28412
#	41682
#	58695
#	76165
#	90702
#	102577
#	119237
#	133120
#	149382
#	164012
#	177997
#	197625
#	212237
#
# Disc length: 3042 seconds
#
# Revision: 0
# Processed by: cddbd v1.5.1PL0 Copyright (c) Steve Scherf et al.
# Submitted via: OrangeCD 5.2
#
DISCID=ea0be00f
DTITLE=Bjørn Spellmann - Trekkspill i 2001...
DYEAR=2001
DGENRE=Country
TTITLE0=Every Little Thing
TTITLE1=In The Mood
TTITLE2=The Great Pretender
TTITLE3=Buena Sera
TTITLE4=Just A Gigolo
TTITLE5=Crazy
TTITLE6=You Drive Me Crazy
TTITLE7=Dover Calais
TTITLE8=He Will Be Mine
TTITLE9=Come On Over
TTITLE10=Sånt er livet
TTITLE11=City Of New Orleans
TTITLE12=Engler i sneen
TTITLE13=Volare
TTITLE14=Danser mot vår
EXTD=
EXTT0=
EXTT1=
EXTT2=
EXTT3=
EXTT4=
EXTT5=
EXTT6=
EXTT7=
EXTT8=
EXTT9=
EXTT10=
EXTT11=
EXTT12=
EXTT13=
EXTT14=
PLAYORDER=
